# xmcd
# Copyright (C) 1995-1998 Ti Kan
#
# Track frame offsets:
#       150
#       19448
#       31856
#       54131
#       69136
#       87663
#       110777
#       127709
#       137412
#       158094
#       174890
#
# Disc length: 3589 seconds
#
# Revision: 1
# Processed by: cddbd v1.5.1PL2 Copyright (c) Steve Scherf et al.
# Submitted via: CD-Transfer v1.0
#
DISCID=800e030b
DTITLE=Sigurd - Doppelgänger
DYEAR=06
DGENRE=
TTITLE0=Planète Noire
TTITLE1=Delaunay
TTITLE2=Sonar Sonar
TTITLE3=Velociraptor
TTITLE4=Kinder Menuet
TTITLE5=Twin Sisters
TTITLE6=Nawa Shibari
TTITLE7=Vitrail
TTITLE8=Antilibido
TTITLE9=No Sex, No Drugs, No Rock'n'roll
TTITLE10=Capsules
EXTD=
EXTT0=
EXTT1=
EXTT2=
EXTT3=
EXTT4=
EXTT5=
EXTT6=
EXTT7=
EXTT8=
EXTT9=
EXTT10=
PLAYORDER=
